<mxfile host="app.diagrams.net" modified="2021-08-27T07:14:17.445Z" agent="5.0 (Windows NT 10.0; Win64; x64) AppleWebKit/537.36 (KHTML, like Gecko) Chrome/92.0.4515.159 Safari/537.36 Edg/92.0.902.78" etag="2jccWkmVh2fJXSitawTK" version="14.9.5" type="github">
  <diagram id="UFSuQlCkiG1u87Nqo_qd" name="第 1 页">
    <mxGraphModel dx="1185" dy="695" grid="0" gridSize="10" guides="1" tooltips="1" connect="1" arrows="1" fold="1" page="1" pageScale="1" pageWidth="3300" pageHeight="4681" math="0" shadow="0">
      <root>
        <mxCell id="0" />
        <mxCell id="1" parent="0" />
        <mxCell id="vqDkYvT0RT23pniDy1Ix-1" value="" style="shape=curlyBracket;whiteSpace=wrap;html=1;rounded=1;strokeWidth=3;" vertex="1" parent="1">
          <mxGeometry x="390" y="110" width="20" height="120" as="geometry" />
        </mxCell>
        <mxCell id="vqDkYvT0RT23pniDy1Ix-2" value="&lt;b&gt;&lt;font style=&quot;font-size: 20px&quot;&gt;前端工程化&lt;/font&gt;&lt;/b&gt;" style="text;html=1;align=center;verticalAlign=middle;resizable=0;points=[];autosize=1;strokeColor=none;fontColor=#CC00CC;" vertex="1" parent="1">
          <mxGeometry x="260" y="160" width="120" height="20" as="geometry" />
        </mxCell>
        <mxCell id="vqDkYvT0RT23pniDy1Ix-3" value="&lt;b&gt;&lt;font style=&quot;font-size: 18px&quot;&gt;1、模块化&lt;/font&gt;&lt;/b&gt;" style="text;html=1;align=center;verticalAlign=middle;resizable=0;points=[];autosize=1;strokeColor=none;" vertex="1" parent="1">
          <mxGeometry x="430" y="100" width="100" height="20" as="geometry" />
        </mxCell>
        <mxCell id="vqDkYvT0RT23pniDy1Ix-4" value="&lt;b&gt;&lt;font style=&quot;font-size: 18px&quot;&gt;2、组件化&lt;/font&gt;&lt;/b&gt;" style="text;html=1;align=center;verticalAlign=middle;resizable=0;points=[];autosize=1;strokeColor=none;" vertex="1" parent="1">
          <mxGeometry x="430" y="140" width="100" height="20" as="geometry" />
        </mxCell>
        <mxCell id="vqDkYvT0RT23pniDy1Ix-5" value="&lt;span style=&quot;font-size: 18px&quot;&gt;&lt;b&gt;3、规范化&lt;/b&gt;&lt;/span&gt;" style="text;html=1;align=center;verticalAlign=middle;resizable=0;points=[];autosize=1;strokeColor=none;" vertex="1" parent="1">
          <mxGeometry x="430" y="180" width="100" height="20" as="geometry" />
        </mxCell>
        <mxCell id="vqDkYvT0RT23pniDy1Ix-6" value="&lt;span style=&quot;font-size: 18px&quot;&gt;&lt;b&gt;4、自动化&lt;/b&gt;&lt;/span&gt;" style="text;html=1;align=center;verticalAlign=middle;resizable=0;points=[];autosize=1;strokeColor=none;" vertex="1" parent="1">
          <mxGeometry x="430" y="220" width="100" height="20" as="geometry" />
        </mxCell>
        <mxCell id="vqDkYvT0RT23pniDy1Ix-8" value="&lt;b&gt;&lt;font style=&quot;font-size: 20px&quot;&gt;后端工程化&lt;/font&gt;&lt;/b&gt;" style="text;html=1;align=center;verticalAlign=middle;resizable=0;points=[];autosize=1;strokeColor=none;fontColor=#6666FF;" vertex="1" parent="1">
          <mxGeometry x="590" y="160" width="120" height="20" as="geometry" />
        </mxCell>
        <mxCell id="vqDkYvT0RT23pniDy1Ix-9" value="" style="shape=curlyBracket;whiteSpace=wrap;html=1;rounded=1;flipH=1;strokeWidth=3;" vertex="1" parent="1">
          <mxGeometry x="560" y="110" width="20" height="120" as="geometry" />
        </mxCell>
      </root>
    </mxGraphModel>
  </diagram>
</mxfile>
